<svg width="35" height="35" viewBox="0 0 35 35" fill="none" xmlns="http://www.w3.org/2000/svg">
<mask id="mask0_181_332" style="mask-type:alpha" maskUnits="userSpaceOnUse" x="0" y="0" width="35" height="35">
<rect width="35" height="35" fill="#D9D9D9"/>
</mask>
<g mask="url(#mask0_181_332)">
<path d="M7.29167 26.0313C8.60417 24.7431 10.1293 23.7283 11.8672 22.987C13.605 22.2457 15.4826 21.875 17.5 21.875C19.5174 21.875 21.395 22.2457 23.1328 22.987C24.8707 23.7283 26.3958 24.7431 27.7083 26.0313V7.29167H7.29167V26.0313ZM17.5 18.9583C18.9097 18.9583 20.1128 18.4601 21.1094 17.4635C22.1059 16.467 22.6042 15.2639 22.6042 13.8542C22.6042 12.4444 22.1059 11.2413 21.1094 10.2448C20.1128 9.24826 18.9097 8.75 17.5 8.75C16.0903 8.75 14.8872 9.24826 13.8906 10.2448C12.8941 11.2413 12.3958 12.4444 12.3958 13.8542C12.3958 15.2639 12.8941 16.467 13.8906 17.4635C14.8872 18.4601 16.0903 18.9583 17.5 18.9583ZM7.29167 30.625C6.48958 30.625 5.80295 30.3394 5.23177 29.7682C4.66059 29.1971 4.375 28.5104 4.375 27.7083V7.29167C4.375 6.48958 4.66059 5.80295 5.23177 5.23177C5.80295 4.66059 6.48958 4.375 7.29167 4.375H27.7083C28.5104 4.375 29.1971 4.66059 29.7682 5.23177C30.3394 5.80295 30.625 6.48958 30.625 7.29167V27.7083C30.625 28.5104 30.3394 29.1971 29.7682 29.7682C29.1971 30.3394 28.5104 30.625 27.7083 30.625H7.29167ZM10.2083 27.7083H24.7917V27.3438C23.7708 26.4931 22.6406 25.855 21.401 25.4297C20.1615 25.0043 18.8611 24.7917 17.5 24.7917C16.1389 24.7917 14.8385 25.0043 13.599 25.4297C12.3594 25.855 11.2292 26.4931 10.2083 27.3438V27.7083ZM17.5 16.0417C16.8924 16.0417 16.3759 15.829 15.9505 15.4036C15.5252 14.9783 15.3125 14.4618 15.3125 13.8542C15.3125 13.2465 15.5252 12.73 15.9505 12.3047C16.3759 11.8793 16.8924 11.6667 17.5 11.6667C18.1076 11.6667 18.6241 11.8793 19.0495 12.3047C19.4748 12.73 19.6875 13.2465 19.6875 13.8542C19.6875 14.4618 19.4748 14.9783 19.0495 15.4036C18.6241 15.829 18.1076 16.0417 17.5 16.0417Z" fill="#FCFCFC"/>
</g>
</svg>
