<svg width="26" height="26" viewBox="0 0 26 26" fill="none" xmlns="http://www.w3.org/2000/svg">
<mask id="mask0_181_350" style="mask-type:alpha" maskUnits="userSpaceOnUse" x="0" y="0" width="26" height="26">
<rect width="26" height="26" fill="#D9D9D9"/>
</mask>
<g mask="url(#mask0_181_350)">
<path d="M11.9161 18.416H14.0828V14.0827H18.4161V11.916H14.0828V7.58268H11.9161V11.916H7.5828V14.0827H11.9161V18.416ZM12.9995 23.8327C11.5009 23.8327 10.0925 23.5483 8.77447 22.9796C7.45642 22.4108 6.30989 21.6389 5.33489 20.6639C4.35989 19.6889 3.58801 18.5424 3.01926 17.2243C2.45051 15.9063 2.16614 14.498 2.16614 12.9993C2.16614 11.5007 2.45051 10.0924 3.01926 8.77435C3.58801 7.45629 4.35989 6.30977 5.33489 5.33477C6.30989 4.35977 7.45642 3.58789 8.77447 3.01914C10.0925 2.45039 11.5009 2.16602 12.9995 2.16602C14.4981 2.16602 15.9064 2.45039 17.2245 3.01914C18.5425 3.58789 19.6891 4.35977 20.6641 5.33477C21.6391 6.30977 22.4109 7.45629 22.9797 8.77435C23.5484 10.0924 23.8328 11.5007 23.8328 12.9993C23.8328 14.498 23.5484 15.9063 22.9797 17.2243C22.4109 18.5424 21.6391 19.6889 20.6641 20.6639C19.6891 21.6389 18.5425 22.4108 17.2245 22.9796C15.9064 23.5483 14.4981 23.8327 12.9995 23.8327ZM12.9995 21.666C15.4189 21.666 17.4682 20.8264 19.1474 19.1473C20.8266 17.4681 21.6661 15.4188 21.6661 12.9993C21.6661 10.5799 20.8266 8.5306 19.1474 6.85143C17.4682 5.17227 15.4189 4.33268 12.9995 4.33268C10.58 4.33268 8.53072 5.17227 6.85155 6.85143C5.17239 8.5306 4.3328 10.5799 4.3328 12.9993C4.3328 15.4188 5.17239 17.4681 6.85155 19.1473C8.53072 20.8264 10.58 21.666 12.9995 21.666Z" fill="#FFEC40"/>
</g>
</svg>
