<svg width="35" height="35" viewBox="0 0 35 35" fill="none" xmlns="http://www.w3.org/2000/svg">
<mask id="mask0_181_342" style="mask-type:alpha" maskUnits="userSpaceOnUse" x="0" y="0" width="35" height="35">
<rect width="35" height="35" fill="#D9D9D9"/>
</mask>
<g mask="url(#mask0_181_342)">
<path d="M17.5 30.625C13.8542 30.625 10.7552 29.349 8.20312 26.7969C5.65104 24.2448 4.375 21.1458 4.375 17.5C4.375 13.8542 5.65104 10.7552 8.20312 8.20312C10.7552 5.65104 13.8542 4.375 17.5 4.375C17.8403 4.375 18.1745 4.38715 18.5026 4.41146C18.8307 4.43576 19.1528 4.47222 19.4688 4.52083C18.4722 5.22569 17.6762 6.14323 17.0807 7.27344C16.4852 8.40365 16.1875 9.625 16.1875 10.9375C16.1875 13.125 16.9531 14.9844 18.4844 16.5156C20.0156 18.0469 21.875 18.8125 24.0625 18.8125C25.3993 18.8125 26.6267 18.5148 27.7448 17.9193C28.8628 17.3238 29.7743 16.5278 30.4792 15.5312C30.5278 15.8472 30.5642 16.1693 30.5885 16.4974C30.6128 16.8255 30.625 17.1597 30.625 17.5C30.625 21.1458 29.349 24.2448 26.7969 26.7969C24.2448 29.349 21.1458 30.625 17.5 30.625ZM17.5 27.7083C19.6389 27.7083 21.559 27.1189 23.2604 25.9401C24.9618 24.7613 26.2014 23.224 26.9792 21.3281C26.4931 21.4497 26.0069 21.5469 25.5208 21.6198C25.0347 21.6927 24.5486 21.7292 24.0625 21.7292C21.0729 21.7292 18.5269 20.678 16.4245 18.5755C14.322 16.4731 13.2708 13.9271 13.2708 10.9375C13.2708 10.4514 13.3073 9.96528 13.3802 9.47917C13.4531 8.99306 13.5503 8.50694 13.6719 8.02083C11.776 8.79861 10.2387 10.0382 9.0599 11.7396C7.88108 13.441 7.29167 15.3611 7.29167 17.5C7.29167 20.3194 8.28819 22.7257 10.2813 24.7188C12.2743 26.7118 14.6806 27.7083 17.5 27.7083Z" fill="#FCFCFC"/>
</g>
</svg>
