<svg width="35" height="35" viewBox="0 0 31 31" fill="none" xmlns="http://www.w3.org/2000/svg">
<mask id="mask0_181_339" style="mask-type:alpha" maskUnits="userSpaceOnUse" x="0" y="0" width="31" height="31">
<rect width="31" height="31" fill="#D9D9D9"/>
</mask>
<g mask="url(#mask0_181_339)">
<path d="M14.2084 21.958H16.7917V14.208H14.2084V21.958ZM15.5 11.6247C15.866 11.6247 16.1728 11.5009 16.4204 11.2533C16.6679 11.0058 16.7917 10.699 16.7917 10.333C16.7917 9.96704 16.6679 9.66026 16.4204 9.4127C16.1728 9.16513 15.866 9.04134 15.5 9.04134C15.1341 9.04134 14.8273 9.16513 14.5797 9.4127C14.3322 9.66026 14.2084 9.96704 14.2084 10.333C14.2084 10.699 14.3322 11.0058 14.5797 11.2533C14.8273 11.5009 15.1341 11.6247 15.5 11.6247ZM15.5 28.4163C13.7132 28.4163 12.0341 28.0773 10.4625 27.3992C8.89101 26.721 7.524 25.8007 6.3615 24.6382C5.199 23.4757 4.27869 22.1087 3.60056 20.5372C2.92244 18.9656 2.58337 17.2865 2.58337 15.4997C2.58337 13.7129 2.92244 12.0337 3.60056 10.4622C4.27869 8.89065 5.199 7.52363 6.3615 6.36113C7.524 5.19863 8.89101 4.27832 10.4625 3.6002C12.0341 2.92207 13.7132 2.58301 15.5 2.58301C17.2868 2.58301 18.966 2.92207 20.5375 3.6002C22.1091 4.27832 23.4761 5.19863 24.6386 6.36113C25.8011 7.52363 26.7214 8.89065 27.3995 10.4622C28.0776 12.0337 28.4167 13.7129 28.4167 15.4997C28.4167 17.2865 28.0776 18.9656 27.3995 20.5372C26.7214 22.1087 25.8011 23.4757 24.6386 24.6382C23.4761 25.8007 22.1091 26.721 20.5375 27.3992C18.966 28.0773 17.2868 28.4163 15.5 28.4163ZM15.5 25.833C18.3848 25.833 20.8282 24.832 22.8302 22.8299C24.8323 20.8278 25.8334 18.3844 25.8334 15.4997C25.8334 12.615 24.8323 10.1716 22.8302 8.16947C20.8282 6.16738 18.3848 5.16634 15.5 5.16634C12.6153 5.16634 10.1719 6.16738 8.16983 8.16947C6.16775 10.1716 5.16671 12.615 5.16671 15.4997C5.16671 18.3844 6.16775 20.8278 8.16983 22.8299C10.1719 24.832 12.6153 25.833 15.5 25.833Z" fill="#FCFCFC"/>
</g>
</svg>
