<svg width="86" height="51" viewBox="0 0 86 51" fill="none" xmlns="http://www.w3.org/2000/svg">
<path fill-rule="evenodd" clip-rule="evenodd" d="M85.5001 33.0557C85.5001 37.4739 81.9184 41.0557 77.5001 41.0557L47.9847 41.0557C45.2317 41.0557 43 38.824 43 36.071L43 29.8399C43 28.0249 40.5652 26.7751 38.7503 26.7751C35.2294 26.7751 32.3752 24.035 32.3752 20.655C32.3752 17.275 35.2294 14.535 38.7503 14.535C40.5652 14.535 43 13.2852 43 11.4702V5.23987C43 2.48711 45.2315 0.255553 47.9843 0.255553L55.0016 0.255553C56.7108 0.255553 57.8747 2.62583 57.8747 4.33504C57.8747 7.71503 60.7289 10.4551 64.2497 10.4551C67.7705 10.4551 70.6247 7.71503 70.6247 4.33504C70.6247 2.62583 71.7886 0.255553 73.4979 0.255553H80.4994C83.2612 0.255553 85.5001 2.49446 85.5001 5.25629L85.5001 33.0557Z" fill="#FFF44F"/>
<path fill-rule="evenodd" clip-rule="evenodd" d="M8.49988 0C4.0816 0 0.499878 3.58171 0.499878 7.99999L0.499878 35.7995C0.499878 38.5613 2.73871 40.8001 5.50044 40.8001L12.5015 40.8001C14.2107 40.8001 15.3746 43.1704 15.3746 44.8796C15.3746 48.2595 18.2288 50.9996 21.7496 50.9996C25.2704 50.9996 28.1246 48.2595 28.1246 44.8796C28.1246 43.1704 29.2885 40.8001 30.9977 40.8001H38.0156C40.7684 40.8001 43 38.5685 43 35.8157L43 29.5846C43 27.7696 40.5651 26.5197 38.7501 26.5197C35.2292 26.5197 32.375 23.7797 32.375 20.3997C32.375 17.0197 35.2292 14.2796 38.7501 14.2796C40.5651 14.2796 43 13.0298 43 11.2147L43 4.98421C43 2.23151 40.7685 0 38.0158 0L8.49988 0Z" fill="#3E378F"/>
</svg>
