<svg width="18" height="19" viewBox="0 0 18 19" fill="none" xmlns="http://www.w3.org/2000/svg">
<path d="M16.6 18.5L10.3 12.2C9.8 12.6 9.225 12.9167 8.575 13.15C7.925 13.3833 7.23333 13.5 6.5 13.5C4.68333 13.5 3.14583 12.8708 1.8875 11.6125C0.629167 10.3542 0 8.81667 0 7C0 5.18333 0.629167 3.64583 1.8875 2.3875C3.14583 1.12917 4.68333 0.5 6.5 0.5C8.31667 0.5 9.85417 1.12917 11.1125 2.3875C12.3708 3.64583 13 5.18333 13 7C13 7.73333 12.8833 8.425 12.65 9.075C12.4167 9.725 12.1 10.3 11.7 10.8L18 17.1L16.6 18.5ZM6.5 11.5C7.75 11.5 8.8125 11.0625 9.6875 10.1875C10.5625 9.3125 11 8.25 11 7C11 5.75 10.5625 4.6875 9.6875 3.8125C8.8125 2.9375 7.75 2.5 6.5 2.5C5.25 2.5 4.1875 2.9375 3.3125 3.8125C2.4375 4.6875 2 5.75 2 7C2 8.25 2.4375 9.3125 3.3125 10.1875C4.1875 11.0625 5.25 11.5 6.5 11.5Z" fill="#7C7C85"/>
</svg>
