<svg width="35" height="35" viewBox="0 0 35 35" fill="none" xmlns="http://www.w3.org/2000/svg">
<mask id="mask0_181_335" style="mask-type:alpha" maskUnits="userSpaceOnUse" x="0" y="0" width="35" height="35">
<rect width="35" height="35" fill="#D9D9D9"/>
</mask>
<g mask="url(#mask0_181_335)">
<path d="M13.4895 32.0837L12.9061 27.417C12.5902 27.2955 12.2924 27.1496 12.0129 26.9795C11.7334 26.8094 11.4599 26.6271 11.1926 26.4326L6.85404 28.2555L2.84363 21.3284L6.59884 18.4847C6.57453 18.3146 6.56238 18.1505 6.56238 17.9925V17.0081C6.56238 16.8502 6.57453 16.6861 6.59884 16.5159L2.84363 13.6722L6.85404 6.74512L11.1926 8.56803C11.4599 8.37359 11.7395 8.1913 12.0311 8.02116C12.3228 7.85102 12.6145 7.70519 12.9061 7.58366L13.4895 2.91699H21.5103L22.0936 7.58366C22.4096 7.70519 22.7073 7.85102 22.9869 8.02116C23.2664 8.1913 23.5398 8.37359 23.8072 8.56803L28.1457 6.74512L32.1561 13.6722L28.4009 16.5159C28.4252 16.6861 28.4374 16.8502 28.4374 17.0081V17.9925C28.4374 18.1505 28.4131 18.3146 28.3645 18.4847L32.1197 21.3284L28.1093 28.2555L23.8072 26.4326C23.5398 26.6271 23.2603 26.8094 22.9686 26.9795C22.677 27.1496 22.3853 27.2955 22.0936 27.417L21.5103 32.0837H13.4895ZM17.5728 22.6045C18.9825 22.6045 20.1856 22.1062 21.1822 21.1097C22.1787 20.1132 22.677 18.91 22.677 17.5003C22.677 16.0906 22.1787 14.8875 21.1822 13.891C20.1856 12.8944 18.9825 12.3962 17.5728 12.3962C16.1388 12.3962 14.9296 12.8944 13.9452 13.891C12.9608 14.8875 12.4686 16.0906 12.4686 17.5003C12.4686 18.91 12.9608 20.1132 13.9452 21.1097C14.9296 22.1062 16.1388 22.6045 17.5728 22.6045ZM17.5728 19.6878C16.9652 19.6878 16.4487 19.4752 16.0233 19.0498C15.598 18.6245 15.3853 18.108 15.3853 17.5003C15.3853 16.8927 15.598 16.3762 16.0233 15.9508C16.4487 15.5255 16.9652 15.3128 17.5728 15.3128C18.1804 15.3128 18.6969 15.5255 19.1223 15.9508C19.5476 16.3762 19.7603 16.8927 19.7603 17.5003C19.7603 18.108 19.5476 18.6245 19.1223 19.0498C18.6969 19.4752 18.1804 19.6878 17.5728 19.6878ZM16.0415 29.167H18.9218L19.4322 25.3024C20.1856 25.108 20.8844 24.8224 21.5285 24.4456C22.1726 24.0689 22.762 23.6132 23.2968 23.0784L26.9061 24.5732L28.328 22.0941L25.1926 19.7243C25.3141 19.384 25.3992 19.0255 25.4478 18.6488C25.4964 18.272 25.5207 17.8892 25.5207 17.5003C25.5207 17.1114 25.4964 16.7286 25.4478 16.3519C25.3992 15.9752 25.3141 15.6166 25.1926 15.2764L28.328 12.9066L26.9061 10.4274L23.2968 11.9587C22.762 11.3996 22.1726 10.9317 21.5285 10.555C20.8844 10.1783 20.1856 9.89269 19.4322 9.69824L18.9582 5.83366H16.078L15.5676 9.69824C14.8141 9.89269 14.1153 10.1783 13.4712 10.555C12.8271 10.9317 12.2377 11.3875 11.703 11.9222L8.09363 10.4274L6.67175 12.9066L9.80717 15.2399C9.68564 15.6045 9.60057 15.9691 9.55196 16.3337C9.50335 16.6982 9.47904 17.0871 9.47904 17.5003C9.47904 17.8892 9.50335 18.266 9.55196 18.6305C9.60057 18.9951 9.68564 19.3597 9.80717 19.7243L6.67175 22.0941L8.09363 24.5732L11.703 23.042C12.2377 23.601 12.8271 24.0689 13.4712 24.4456C14.1153 24.8224 14.8141 25.108 15.5676 25.3024L16.0415 29.167Z" fill="#FCFCFC"/>
</g>
</svg>
