<?xml version="1.0" standalone="no"?>
<!DOCTYPE svg PUBLIC "-//W3C//DTD SVG 20010904//EN" "http://www.w3.org/TR/2001/REC-SVG-20010904/DTD/svg10.dtd">
<svg version="1.0" xmlns="http://www.w3.org/2000/svg"
 width="700.000000pt" height="700.000000pt" viewBox="0 0 700.000000 700.000000"
 preserveAspectRatio="xMidYMid meet">
<metadata>
Created by potrace 1.14, written by Peter Selinger 2001-2017
</metadata>
<g transform="translate(0.000000,700.000000) scale(0.100000,-0.100000)"
fill="#000000" stroke="none">
<path d="M566 5493 c-1 -1 -56 -3 -122 -4 -198 -2 -316 -58 -388 -182 -59
-101 -56 -29 -53 -1492 1 -737 6 -1353 10 -1369 35 -128 148 -235 284 -267 28
-6 165 -12 328 -14 166 -1 300 -7 328 -14 72 -17 140 -55 190 -106 73 -74 99
-146 110 -310 12 -167 106 -286 267 -341 82 -27 347 -28 445 -2 161 44 268
169 281 328 11 145 16 168 44 228 47 100 134 170 250 202 30 8 145 14 335 16
160 2 297 5 305 7 61 16 80 23 121 43 91 45 169 149 185 246 7 38 24 43 24 7
0 -11 13 -48 29 -83 48 -106 137 -177 261 -207 73 -17 2775 -20 2879 -3 158
27 276 135 311 286 6 27 10 534 10 1369 0 1179 -2 1332 -16 1380 -40 138 -133
228 -272 265 -68 17 -563 21 -649 5 -168 -33 -294 -168 -308 -332 -11 -134
-16 -160 -37 -216 -38 -103 -152 -194 -278 -222 -57 -13 -322 -13 -380 0 -72
15 -163 65 -206 112 -72 79 -93 134 -104 272 -10 131 -38 203 -103 272 -46 49
-129 99 -181 109 -11 2 -32 6 -46 9 -32 7 -555 7 -595 0 -92 -16 -192 -74
-242 -139 -32 -42 -65 -112 -79 -171 -7 -29 -7 -29 -15 15 -27 142 -149 262
-296 290 -41 8 -438 12 -1341 13 -706 1 -1285 1 -1286 0z"/>
</g>
</svg>
